<svg width="34" height="34" viewBox="0 0 34 34" fill="none" xmlns="http://www.w3.org/2000/svg">
<path d="M29.9231 26.6923H28.8462V21.3077C28.8462 18.1659 27.5981 15.1528 25.3765 12.9312C23.1549 10.7096 20.1418 9.46155 17 9.46155C13.8582 9.46155 10.8451 10.7096 8.6235 12.9312C6.40192 15.1528 5.15385 18.1659 5.15385 21.3077V26.6923H4.07692C3.79131 26.6923 3.5174 26.8058 3.31544 27.0078C3.11348 27.2097 3.00001 27.4836 3 27.7692V29.9231C3.00001 30.2087 3.11348 30.4826 3.31544 30.6846C3.5174 30.8865 3.79131 31 4.07692 31H29.9231C30.2087 31 30.4826 30.8865 30.6846 30.6846C30.8865 30.4826 31 30.2087 31 29.9231V27.7692C31 27.4836 30.8865 27.2097 30.6846 27.0078C30.4826 26.8058 30.2087 26.6923 29.9231 26.6923V26.6923ZM7.30769 21.3077C7.30769 18.7371 8.32884 16.2719 10.1465 14.4542C11.9642 12.6365 14.4294 11.6154 17 11.6154C19.5706 11.6154 22.0358 12.6365 23.8535 14.4542C25.6712 16.2719 26.6923 18.7371 26.6923 21.3077V26.6923H7.30769V21.3077Z" fill="currentColor"/>
<path d="M15.9231 4.07692V7.30769C15.9231 7.59331 16.0366 7.86723 16.2385 8.06919C16.4405 8.27115 16.7144 8.38462 17 8.38462C17.2856 8.38462 17.5596 8.27115 17.7615 8.06919C17.9635 7.86723 18.0769 7.59331 18.0769 7.30769V4.07692C18.0769 3.79131 17.9635 3.51739 17.7615 3.31542C17.5596 3.11346 17.2856 3 17 3C16.7144 3 16.4405 3.11346 16.2385 3.31542C16.0366 3.51739 15.9231 3.79131 15.9231 4.07692V4.07692Z" fill="currentColor"/>
<path d="M8.70009 5.46943C8.60006 5.56941 8.52072 5.68811 8.46658 5.81875C8.41245 5.9494 8.38458 6.08943 8.38458 6.23085C8.38458 6.37227 8.41245 6.51231 8.46658 6.64295C8.52072 6.7736 8.60006 6.8923 8.70009 6.99227L10.8539 9.14612C11.056 9.34742 11.3297 9.46033 11.6149 9.46006C11.9002 9.45979 12.1736 9.34636 12.3753 9.14467C12.577 8.94298 12.6904 8.66951 12.6907 8.38428C12.691 8.09905 12.5781 7.82536 12.3768 7.62329L10.2229 5.46944C10.123 5.36941 10.0043 5.29007 9.87361 5.23593C9.74296 5.1818 9.60293 5.15393 9.46151 5.15393C9.32009 5.15393 9.18006 5.18179 9.04941 5.23593C8.91876 5.29006 8.80006 5.36941 8.70009 5.46943Z" fill="currentColor"/>
<path d="M5.46937 12.3767C5.67144 12.578 5.94513 12.6909 6.23036 12.6907C6.51559 12.6904 6.78907 12.577 6.99076 12.3753C7.19245 12.1736 7.30587 11.9001 7.30615 11.6149C7.30642 11.3297 7.19351 11.056 6.99221 10.8539L4.83836 8.70005C4.63629 8.49874 4.3626 8.38584 4.07737 8.38611C3.79214 8.38638 3.51867 8.49981 3.31698 8.7015C3.11529 8.90319 3.00186 9.17666 3.00159 9.46189C3.00132 9.74712 3.11422 10.0208 3.31553 10.2229L5.46937 12.3767Z" fill="currentColor"/>
<path d="M23.777 5.46935L21.6232 7.6232C21.5231 7.72318 21.4438 7.84189 21.3896 7.97255C21.3355 8.10321 21.3076 8.24325 21.3076 8.38469C21.3075 8.52613 21.3354 8.66618 21.3895 8.79686C21.4436 8.92753 21.5229 9.04627 21.6229 9.14628C21.723 9.24629 21.8417 9.32562 21.9724 9.37973C22.103 9.43385 22.2431 9.46169 22.3845 9.46167C22.526 9.46165 22.666 9.43376 22.7967 9.3796C22.9273 9.32545 23.046 9.24608 23.146 9.14604L25.2999 6.99219C25.5009 6.79007 25.6136 6.51646 25.6132 6.23137C25.6128 5.94629 25.4994 5.67298 25.2978 5.4714C25.0962 5.26981 24.8229 5.15639 24.5379 5.15601C24.2528 5.15563 23.9792 5.26831 23.777 5.46936L23.777 5.46935Z" fill="currentColor"/>
<path d="M29.1617 8.70007L27.0078 10.8539C26.9078 10.9539 26.8284 11.0726 26.7743 11.2033C26.7201 11.3339 26.6922 11.474 26.6922 11.6154C26.6922 11.7568 26.72 11.8969 26.7741 12.0276C26.8282 12.1582 26.9076 12.277 27.0076 12.377C27.1076 12.477 27.2263 12.5563 27.357 12.6104C27.4877 12.6646 27.6277 12.6924 27.7692 12.6924C27.9106 12.6924 28.0507 12.6645 28.1813 12.6103C28.312 12.5562 28.4307 12.4768 28.5307 12.3768L30.6845 10.2229C30.8856 10.0208 30.9982 9.74718 30.9979 9.46209C30.9975 9.177 30.8841 8.9037 30.6825 8.70211C30.4809 8.50052 30.2076 8.3871 29.9225 8.38672C29.6374 8.38634 29.3638 8.49903 29.1617 8.70007L29.1617 8.70007Z" fill="currentColor"/>
<path d="M15.9231 13.7692C14.21 13.771 12.5675 14.4524 11.3562 15.6638C10.1448 16.8751 9.46342 18.5176 9.46155 20.2307C9.46155 20.5163 9.57501 20.7902 9.77697 20.9922C9.97893 21.1942 10.2529 21.3076 10.5385 21.3076C10.8241 21.3076 11.098 21.1942 11.3 20.9922C11.5019 20.7902 11.6154 20.5163 11.6154 20.2307C11.6156 19.0883 12.0695 17.9927 12.8773 17.1849C13.6851 16.3771 14.7807 15.9232 15.9231 15.923C16.2087 15.923 16.4826 15.8095 16.6846 15.6076C16.8865 15.4056 17 15.1317 17 14.8461C17 14.5605 16.8865 14.2866 16.6846 14.0846C16.4826 13.8826 16.2087 13.7692 15.9231 13.7692Z" fill="currentColor"/>
</svg>
