<svg width="34" height="34" viewBox="0 0 34 34" fill="none" xmlns="http://www.w3.org/2000/svg">
<path d="M28.1562 4.25H5.84373C4.1834 4.25 2.83331 5.52075 2.83331 7.08333V26.9167C2.83331 28.4792 4.1834 29.75 5.84373 29.75H28.1562C29.8166 29.75 31.1666 28.4792 31.1666 26.9167V7.08333C31.1666 5.52075 29.8166 4.25 28.1562 4.25ZM28.1562 26.9167H5.84373C5.76298 26.9167 5.70773 26.894 5.68365 26.894C5.67373 26.894 5.66806 26.8968 5.66665 26.9053L5.64965 7.1485C5.65956 7.13433 5.72331 7.08333 5.84373 7.08333H28.1562C28.2681 7.08475 28.3291 7.123 28.3333 7.09467L28.3503 26.8515C28.3404 26.8657 28.2766 26.9167 28.1562 26.9167Z" fill="currentColor"/>
<path d="M8.5 9.91663H17V18.4166H8.5V9.91663ZM18.4167 21.25H8.5V24.0833H18.4167H19.8333H25.5V21.25H19.8333H18.4167ZM19.8333 15.5833H25.5V18.4166H19.8333V15.5833ZM19.8333 9.91663H25.5V12.75H19.8333V9.91663Z" fill="currentColor"/>
</svg>
