<svg width="34" height="34" viewBox="0 0 34 34" fill="none" xmlns="http://www.w3.org/2000/svg">
<path d="M28.3334 5.66663H8.50002C6.93744 5.66663 5.66669 6.93738 5.66669 8.49996V15.5833H8.50002V11.3333L17.5667 18.1333C17.8189 18.3217 18.1178 18.4166 18.4167 18.4166C18.7156 18.4166 19.0145 18.3217 19.2667 18.1333L28.3334 11.3333V24.0833H17V26.9166H28.3334C29.8959 26.9166 31.1667 25.6459 31.1667 24.0833V8.49996C31.1667 6.93738 29.8959 5.66663 28.3334 5.66663ZM18.4167 15.2291L9.44352 8.49996H27.3899L18.4167 15.2291Z" fill="currentColor"/>
<path d="M2.83331 17H12.75V19.8333H2.83331V17ZM5.66665 21.25H14.1666V24.0833H5.66665V21.25ZM9.91665 25.5H15.5833V28.3333H9.91665V25.5Z" fill="currentColor"/>
</svg>
